<?xml version="1.0" standalone="no"?>
<!DOCTYPE svg PUBLIC "-//W3C//DTD SVG 20010904//EN"
 "http://www.w3.org/TR/2001/REC-SVG-20010904/DTD/svg10.dtd">
<svg version="1.0" xmlns="http://www.w3.org/2000/svg"
 width="100.000000pt" height="100.000000pt" viewBox="0 0 100.000000 100.000000"
 preserveAspectRatio="xMidYMid meet">

<g transform="translate(0.000000,100.000000) scale(0.100000,-0.100000)"
fill="#000000" stroke="none">
<path d="M730 815 c0 -25 -2 -45 -5 -45 -2 0 -21 11 -41 25 -129 88 -332 62
-439 -56 -64 -71 -90 -140 -90 -239 0 -76 4 -93 33 -152 38 -77 92 -130 171
-167 47 -22 70 -26 141 -26 99 0 168 26 239 90 50 46 99 142 108 213 l6 52
-40 0 -40 0 -7 -48 c-19 -144 -163 -250 -310 -228 -70 11 -146 63 -183 125
-55 92 -56 185 -2 279 68 120 228 166 350 100 l44 -23 -42 -3 -43 -3 0 -45 0
-44 120 0 120 0 0 120 0 120 -45 0 -45 0 0 -45z m70 -75 l0 -100 -100 0 -100
0 0 25 c0 23 3 25 50 25 28 0 50 4 50 9 0 18 -68 62 -116 77 -108 32 -202 8
-285 -75 -85 -85 -107 -176 -73 -291 22 -75 109 -162 184 -184 30 -9 70 -16
90 -16 133 0 261 109 285 243 5 27 12 37 26 37 23 0 24 -11 3 -80 -29 -98 -93
-172 -183 -214 -35 -16 -66 -21 -131 -21 -73 0 -93 4 -141 28 -66 32 -132 99
-162 165 -34 73 -31 198 6 273 32 67 100 133 165 161 103 46 238 31 326 -37
26 -19 48 -35 51 -35 3 0 5 25 5 55 0 52 1 55 25 55 l25 0 0 -100z"/>
<path d="M425 728 c-66 -23 -138 -96 -150 -153 -5 -23 -1 -19 15 15 37 78 94
122 183 140 34 6 37 8 12 8 -16 0 -43 -4 -60 -10z"/>
<path d="M261 491 c-2 -35 18 -93 41 -122 17 -22 17 -20 -2 19 -12 24 -25 63
-30 85 -4 25 -8 32 -9 18z"/>
<path d="M724 465 c-6 -28 -15 -59 -19 -69 -6 -13 -5 -17 2 -13 13 8 36 89 31
113 -2 10 -8 -4 -14 -31z"/>
<path d="M659 333 l-24 -28 28 24 c25 23 32 31 24 31 -2 0 -14 -12 -28 -27z"/>
<path d="M363 309 c36 -34 104 -53 160 -46 46 5 103 25 95 32 -3 3 -21 -2 -41
-10 -66 -27 -163 -11 -227 38 -9 7 -3 0 13 -14z"/>
</g>
</svg>
