<?xml version="1.0" standalone="no"?>
<!DOCTYPE svg PUBLIC "-//W3C//DTD SVG 20010904//EN"
 "http://www.w3.org/TR/2001/REC-SVG-20010904/DTD/svg10.dtd">
<svg version="1.0" xmlns="http://www.w3.org/2000/svg"
 width="64.000000pt" height="64.000000pt" viewBox="0 0 64.000000 64.000000"
 preserveAspectRatio="xMidYMid meet">

<g transform="translate(0.000000,64.000000) scale(0.100000,-0.100000)"
fill="#000000" stroke="none">
<path d="M374 584 c-7 -3 -31 -59 -55 -124 -31 -83 -49 -120 -60 -120 -8 0
-24 -7 -35 -15 -27 -20 -34 -19 -34 8 0 30 -39 67 -71 67 -32 0 -69 -38 -69
-71 0 -14 11 -36 25 -49 23 -22 28 -22 97 -13 108 15 110 13 95 -95 -9 -69 -9
-74 13 -97 14 -15 35 -25 50 -25 33 0 70 38 70 71 0 31 -38 69 -68 69 -26 0
-27 3 -8 33 7 12 26 90 40 172 15 83 30 160 33 173 5 21 0 25 -23 16z m-229
-254 c0 -18 -6 -26 -23 -28 -24 -4 -38 18 -28 44 3 9 15 14 28 12 17 -2 23
-10 23 -28z m180 -20 c3 -6 -1 -13 -10 -16 -19 -8 -30 0 -20 15 8 14 22 14 30
1z m30 -190 c0 -18 -6 -26 -23 -28 -13 -2 -25 3 -28 12 -10 26 4 48 28 44 17
-2 23 -10 23 -28z"/>
<path d="M478 381 c-49 -10 -90 -20 -93 -23 -3 -3 -10 -19 -15 -37 -11 -40 -8
-40 110 5 87 33 109 46 110 67 0 9 -7 8 -112 -12z"/>
</g>
</svg>
